<svg xmlns="http://www.w3.org/2000/svg" width="512" height="512" viewBox="0 0 512 512" role="img" aria-label="ROTUNDA dome mark">
  <rect width="512" height="512" fill="#0a0a0a"/>
  <g transform="translate(256,256) scale(2.2) translate(-228,-131)" stroke="#ededed" stroke-width="3" stroke-linecap="round" fill="none">
    <path d="M 150 150 A 78 78 0 0 1 306 150"/>
    <path d="M 172 150 A 56 56 0 0 1 284 150"/>
    <line x1="228" y1="50" x2="228" y2="72"/>
    <line x1="136" y1="150" x2="320" y2="150"/>
    <line x1="168" y1="150" x2="168" y2="196"/>
    <line x1="198" y1="150" x2="198" y2="196"/>
    <line x1="228" y1="150" x2="228" y2="196"/>
    <line x1="258" y1="150" x2="258" y2="196"/>
    <line x1="288" y1="150" x2="288" y2="196"/>
    <line x1="150" y1="196" x2="306" y2="196"/>
    <line x1="150" y1="212" x2="222" y2="212"/>
    <line x1="234" y1="212" x2="306" y2="212"/>
  </g>
</svg>
